/* XPM */
static char *a887f7ceb2404915bd409bf63ea0de5cLNieY59lFGOdNXSn[] = {
/* columns rows colors chars-per-pixel */
"128 128 42 1 ",
"  c gray35",
". c #5D5D5D",
"X c gray39",
"o c #676767",
"O c #6A6A6A",
"+ c gray43",
"@ c gray45",
"# c #747474",
"$ c #7B7B7B",
"% c #7E7E7E",
"& c #818181",
"* c gray52",
"= c #8B8B8B",
"- c gray55",
"; c gray57",
": c #979797",
"> c #9A9A9A",
", c #9D9D9D",
"< c gray64",
"1 c #A4A4A4",
"2 c #AAAAAA",
"3 c #AEAEAE",
"4 c #B2B2B2",
"5 c #B7B7B7",
"6 c #BBBBBB",
"7 c gray75",
"8 c gray76",
"9 c #C5C5C5",
"0 c #C8C8C8",
"q c #CDCDCD",
"w c #D0D0D0",
"e c #D7D7D7",
"r c gray85",
"t c gray87",
"y c #E2E2E2",
"u c gray90",
"i c #EAEAEA",
"p c #ECECEC",
"a c gray95",
"s c #F6F6F6",
"d c gray98",
"f c #FDFDFD",
/* pixels */
",<,>;==--;;-:<11,,>:-=:>,<22:#$==**&=-;::>,,,,,>:><,,,:--:>;--==**=-;>,>,<;=*-=**&%%&*==:::,,>-->>;=&$&;;:*%*;:;===--;;;;=**-:::",
"2578753344455678889988eerr6qr-:4644445667777777775412477532344335899763<<533qerrrwqeeww5eeq98776552,;=3ere9579weeew077866667631,",
"370qwreeewq000qqwwewqetttq37r=>9089900qqwrewqeteq07247qre07qww0qrtrw975<,67ettttytrrttr8trterrreq083:>6tyrq900qeeeer65qqwwq8974,",
"380qeryuipasdsssaappuutruuqqq%109riassssssssawtteq0258wypiiiipppuyre085<,57yapiippipadp9ssddattrew08>:38wetwruasdddfaupyree9096>",
"28qqweaffdddddsdddffffdipyrq6@<98udddddsssssdpuye09249eyudpassaaiyeq975,,58affffffffffi7ffdsdsytrew8>;<48dddfpiasddfffffaywqw05:",
"<8qwqtffdsddddsdffffddaffpe81#,9easdsssssaaasdfsy98149wrydsssssssauw965,>49dfffffffffsu8ddssddsutre8:;,30dsdfdyppadffddddsqete6-",
">8ertafdsddddddddfdddsaffd04,$>8rsdffdddddsassdda98<370wrdddssssssaaeq7>>29dfdddddddsau7ddssdddduyt8>-,4wsdfffpiadffdddddartyr6=",
">8ryaddssdddfffddsapppaffd94,$:7rdssfffddddsassssq9<3568tdddddssssaauw5>,38dddddddddddi6sdsssdddsuy8,->4tdfffffdfffddddddsiuur7=",
",8epdddssddffffddffffddffs751$:7rddadfdfddddsasssw912434udsssddddsaaar5>,36ddddddddddda7issssddddsy8,=:4uffffffffddddddddssair8*",
"<8wadssssdfffffdfffffffffi76<$;6efssffdfddddssasdw911316ffsassdddsaaay5:>13dsddddddsssd6psssssssssi0<*:6ifffffffddddddddsassat8&",
"<8wsdssssdffffffffffffffdp74>$;6edfffffdddddssaase9<<21pffdspadddssaay6;<35sssdsssssssi5ssssssssssiq<*:7iffffffddddddddsaaaspr9*",
"18wdsssssdfffffffffffffffs64>$;6edffffddddddsssssr9<,16fffffdsssdssssy6=268dfdddddssss8tsssssssssspq<*>8iffffddddddddddsaaaaiq3=",
"39edssssddfffffffffffffffa86<%;7qpffffddddddassddr9<,17fffffdddssssssy8=29wffffffddddd7pssaassssssaq<=<9edddfdddssssddsaaaaau02;",
"38wasssddddffffffffffffffi982%:69ifddfdddddsaasddr8>>15pdffdddddsssssy9=29wffffffffddd8sdsssaaasssaq<-30widdsssssdddddsssaaauq2:",
"38eusssdddddddfffffffffffy094&>67pddfffddssaaasddt9>>15afffdddddsssssu0=28wdffffffffdd9sdsaaaassssaq1:5qetsssssddssddssssaaaiw2>",
"39tuisdddddddsdffffffffffrq96=>67sddfffssssaasdddt9>,15dffddddddsssssuq-<8wdffffffffdd9sdsasssssssi82,7qwrpdsssssssssssssaaapw3>",
"39yuuasdddddssdfffffdssdiq097::47yfddddssssssddddt0>,16fffdddddddssssu0;,8wdfffffffffu9dsaassddddpr7328qwetsdsssssssssaaaaaaiw4,",
"38yuuissddddssddddssaasr0ew98>>499iffdssssssdddaiy9>,<6ddffsdddddssdat9:>8esffdddfffs5pdssssdddautw6338qeewtsssaaaaaaaaaasaauq4,",
"39yuuuaddddsaasssasddirwwre85>,589qpfdsssssdddiiiy9><17adddsdddddssitr8><7wwqrpdffdd8tdssasddauttew8448wwwwwepaaaaaaaaaiyrqqe93<",
"38tyuiiupasssssssapuq0ryrrw52>1579qeasssssddpyuuuy9><4qypddsddddspytre8<17q00qtyissa7utytttuuttrreq9648q090eewassaiyyuuteq86893<",
"38wyuuytewwq97qeeq86790qew93<>1579qwetyyuuuttuuyte8<18rytrwrtttrwrrewq713879wweeew9q8etyuiyrweeewq096580988we98ee08657qw9777883<",
"1780988888871125908665211341>:<4789880q00987700q086,,9rtrq90ew9787899741465699654457268887890qq009986578865685343331,,,2<12454<>",
";1211112222-==**;1,;-*&&&=:;=-:13333334321<,,,,,<1<-=<11<;-;<,,>,,<<<,>;<442<,,>><1>::>>,,,,<<<22455434431,>;;:;---*%#@+@$%%$%**",
"*>,:-=*&&&%&&$##%%%&=--;:>>;-;>1<:::;;;;;:::::;:,<11<,:;-=&&;>;=;>,,:=;<2441>1<,,::;;;-*====-;::,<244333222<::,<<<,<2344,==;,5<=",
"-8097434321<:&=:<1245766655411342,245436888898876678956752:>2wtw84213qw08862<4882,,1368777777774368964576567624655670werrrwwyue:",
"*70tuuyye974,*>35678qeeeewqqq8772<59weytewweyiipiyreq50006>,3wtrrreeyuitq973,5qw6<<2579988909889799963690qw0908889980qrttttyuuu<",
"$6tsssssdsy5<*>580usdffddddfsu971,5weesssssssdduidsi9reqw8:,5eadddddddfar061>5qw0q723676qtyisapiwqq74166qtyupaurreeuipppiippuyu<",
"#5issaaasss6<&<70afdddffdssddd96<>4qeidsddddddyiaass7aapt9;>6edsssdddddfpe7,:7qwwifdyrrpffsiddpfyqq52,46eyysfddffddddddddffsitt,",
"#5uaaaaasss8<%<8efdddffddsddddw6<:39tstyupssayiassds7sssyq-;5wdssddssssddu8,;8qwtdfffffdffsissafseq3<:68riaffffddssssssssssditr:",
"%5uaaaasddd5<%,7wfsddfdptadddde7<:26iyiiuyttyasssssd6ssstq=;59rruiyppur8572;=90wuffffffdffspdssfduw3<-69ydfdddfddsassssasssdutw;",
"*6yasdddsai41%,70fddfsr97tddddr7<;<4pyr9qappasapiadi8dddrq=;6ttqw840qqrpdd0:-00ypffffffssaassssfdsq2<=68tffdssddssaassssssadyt0;",
"-7ysddssssy53#29qdddde776uddddr8<:17i9680ssaapuidds7pdddrq*;6ufi0q0ifffffd0:-89tsfffffdpsddsaasddsr3,=58ufdddssdsssaasasspadur9=",
":9yddsssdds84@3qtddddt679addddr9,:60u978esaaitasssp5sdddeq*>9ifp90wsfffffd8<=,8edfffdddasspipsfdsat6<=69issdddsssssaaassaaasaq7%",
">0rdsssdddaq5O3qudsasse0rssdddr9,>9qtpqqtsaptasssd7yssddeq=,8iffuwtdfffdds93=;4qfffffffdite09udsapt83=39uassdddsssssaaaaaaaspq4%",
">8wsdssddda99O3qusaaassaaddddsr9,>0eeapupsaaudsssd3dddddq8=:8pfffddffffddsq3=>69affffffaewrw7tdsiur92->7yissdddsssssaaapasssu05=",
",79tddddddpw9@3wiaaaaasssddddar0<>7ertdssssaisdddu9fdfir07;;6pffffsddddddsw4-190tffffffsewe0esdsite7<:15eiadddddssssappaassut04-",
"178qisssdduew#4wuapppssssdddsie91,5wrtiddddsidfffqtfstewq6:>8tfffddfdddssse5-5weeiassspityipipsayeq5<>470tuadddddssssaasasure94:",
"1780qwerrttrr$3etuiiuruasssuewq7<,48qrttyttuyyuuu7utwwwq05>,qqidfffdsssssiw6;9etr98888880wwq00wtrw95<,690ettaaaaiuyyyttrq0qqq95,",
"1578890qweerr%2ereweq85578899975<:<36790weeeeeew0607789973>,99760weqqerrrww6>9qq74667990988865609874<>590q0998890qw0009998789071",
"<132344347561@=788877321113331<,-&=:,13579000999465555553,;:45,;-><23332267<-145<<12245432333211321,-=<6788765566774345543235541",
"::;*%#@+++O+@o#&&*=----===;;;;;;;;---=&%%&&%&**&**;-=;>,,:>::>;--=*&&**-->,>,,,:>>>::;:>,,,<<<,,,,>:;-;**;;-=****=--;;;-;;;:><1,",
":1211<>>>;---=:,,>><<;->14678777789qww07521<,<<<,>::<3576445560weeq93<4788909808663<1256555566788890weq;=8754466667735445677653<",
">9w0999887788884223551;158000qwqqqerttrw0906086664<159qerree00wq0rttte0qrttrq8ww88634570ewqq0000qwetyui;,ew0qewweerr7reeww00876<",
";7weqwewwetyuyyytye763;17900wtuipssdddddspt8rw009924qwerttyteiffffffffddpyytw9req073779wryupappapiuyuiu=>wrsdddssaas9sdptewq098<",
";40riipsffffdddspiuq73=30q0qtupsffsddssdssyeyrewq036eertyyyirdffffffffddffsiqrtreq0379wetsdsaaaaasdduuy*;qiddddssssa8sddsutew09,",
"-49tdfdddddddddffdat81&29rewyadfffddddssss0aprrew837wrtyyupardfffffffdddfffs9iytrwq36qeradsssaaaassdptt*-0adddddssa9uddddsutew0>",
"-69esfdssdddddffffda8:$13rysffffffdssdsssiqssputw5270yyyiaiirsfffffffdddfffqqsyyteq36qwidssssssaaassarr*-0pddfdddsy0sddssssurr9:",
"=790ifdsasssdfffffdi8;+560afffffffdssssssqussssuq3179rwrttrridfffffffdffffp6sdpyyrq379esssssssssaaadprr@-9pdffdddsressdssssdpt7;",
"*69qufdssaasddffffdt8:+7reeidffdffdssssss9psaaayw4,77eaffddfffffffffffffffwefddpyt0267isssssssssssadieqO;9ifddddssywssddssssat6;",
"%40wpfsssppsddfffddr7:+8wu80ysfddfdssssss9psasatq6,50ufdddsdfffffdffffffff8pddssiy9246sssssssssssssdyewO;9ifddssssi0ssddddssat6;",
"$3qrafssspiadddddddp6;+7wua67iffdfdssssss8psssarq7>5wuddddsdfffffddfffffff8sddsssy9125sssssssssdssddyrr+;0ifddsassaeusdddddsst5-",
"#30tsfsssppadddddssa6=+7wuffq4fffffdsssss6ssssayq7:7wuddddsdddddfffffffffd8adddssi9,16ssssssssssssdduer@,0ifddssssatrdddddddst4-",
"#59yddssspasdfffddsp6=+7qyffd8rffffdsdddi0dsassiw5;7wudddsasdddddffffffffuqsfdddsi0:19asssssssssdddfuew@,0ifddssdda0idddfddddy5=",
"$69uddsssasdfffffddp6;+7qyfffu5pffffsaaseydsaasiw5;8wudsssasdddsdfffffffa6pfdddddi9;50sssssssssssddfue0#:0ufdsddddd7ddddffdddy5=",
"#60ufdsssasdffffffdi6;+7wrfffsy6affuisdd0pdsassiw6-7qudddssddddddddddddf8tffdddddp9;60assssssssssddfyw8$=0ufddddddf7addfffddfr7=",
"#60ufsssssdfdffffddu7>+8w0afffpy6fuuaddd9adsaaape7;70ydddssdffffdddsssda6fffdddddp0>30assssssssssddfrq8%=6ydsdfffff7sdfffdddde8=",
"$69udsaaaadfdffffddu8,@9ewrfffsp0yuuadds9sssssaay6;50ydddddfffffffdddsdtqfffdddspu0<23ussssssssssdddqq7&-5rddffdsff7dp9eddddse6%",
"%69udsssssddddffdddy9,@9rrrdfffpt9sipsda9dsssssau6:19udddddfffffffddddsqtfdffdsiuu02447issssssssssdpww6*;4rpdfseyus0fr,5sddddr3%",
"&60ufddssssdddfddsye01#8q0idsffdi9ufsada0dsassssu7,16uddddsfffffffffddd6iippasuuyt036809wassssssssdeew6-:3ryudiuasd9saepddffde1&",
"&70ufdddsssddffdareq01#8eyfdddffau7dfssiwdsassasi7<35wfddssffffffffffdu0passutttteq37qwq8tsssssssdurtq5;>2ertiuassd9sfffdddfp02=",
"*8wyyyuiadsssddureq093&7qwuipadfdayeupa8ydaassasy91259iddsdfffffffffff0asuiytttrewq20wew9eiaaaaaastty95>,2qerrtdddfqafdaiaapw05:",
"-9ewqwwq0qeq0qeeeq0971=700werrew87qw098eutiasaaie0137ewtiaasspadddfffd0dpterreewqq930qwewwqq00qqeteew85,<29qrww9wrt0ttr960qqwq5,",
";8eqqqqq0989877789861,-17754433245689095780qqqwee0249rreewqww09qqqqqw90wwe0qqq09986579wew779qqqqqwq0973>><5978085456667448880q5<",
"->,>>::>>><1111111111,><333452::,,<1341>,,<3567895>149q0000978987777626542223444454467886223666411221,;**:,3454<,:;;--;;:<,<242,",
";;===*===---;:>>:>,,,<222>:-==--===*%#%&%%%$%&=;::-;>:-*&&**-;;-==*&&::;=****--:,123322221>;=*&%++=:::;>,11>:;;::;-=**&&&&&=-:>:",
">,,,>,,,,:=;:,<,8984,<355<:><122234223565555441221>;,277787864233,-&=1459q005321<11322367599852>#&rtrewq652,,144455444333333<<,;",
">122346875441126tyr0890082>,478998880wq098877654551>44qeewewqwe7661-=7qwreereq0997121368qetuut83&=tuuytyw63<1480wwrrewq00qwq741>",
":58099009eiiw55qyyttttrw03>,600qwruyytrupiiuteq090<;56rssapiu0wtq05,*8ryyupaasssyw71,370yaassde6--tipassp84,17qertuiiiipasaue63:",
"-79ewwrupddddpwtyttprryew3:>7qwridfffddffffffffyee<=4qidddt8qpsaeq91-weydddssddsdi05;38esssssdi9>-eissasar4>>8qqetuppiuppiapw84=",
"*80eifffdddddsssssffsutye2;:7wpddddddddffffffffiwe,*3qpsr8wassssue0<-qerddffffffdde0:28pssddssa9:-wydppasi4::8eqryiiuiassaisr84&",
"*0wtdsdddddddssdffffffsy03;>9radddddddddfffffffpqw,*1qe0russsaaspy01-qetffffffffddrw,>8ssdddddd0;;wesiassp5;;7epyyuypaaaaasyu74#",
"&qrtdddsssddsssdfdasffdyq3-:0raddddsddddddfffffpqq>*,7yuypasaaaaau01-qwuffffffffddrw,:4ssssddddw>-8esasssi6;-2qaspiiaaaaaaauu85O",
"&0wydffssssssssdde9waffyw7-:9esdddddsddddddffffaqq>&>5rppppaaaaaay0<;q0iffffffffddrq,:6ssssddddw<*8ysssssi7-=<qisaaaaaaaaaaiy95o",
"$0qysfddsssaassddt89uffuwq;-6esssdddssddddddfffaqq:&>3ysssaaaasssy8<;q0pddffffffddt0><0addsdssd03*8ysssssi8-=,qusaaaaaaaassiy06o",
"@90taffdsssssasdfdutafduwq;-5easssdddssddddsssaaq0:&>2addddssssssa0<-qwpddddffddddy0;50pdddsssiq4=7ysssssu9;*2qissaassssssdit07+",
"+70esfddsssssssdfffffdaueq:;6wyassddddsssdsdddfdqq:%:2ssdssddddssa0<-9qaddddssssssy0-50pdddddfuw2*<wssssst9;*50ussaassasdddptw7#",
"@69wpfdddsssssadffffdapie0>>7etuassdsddddddsddfdwq>%:1ssssssdddddi03-60sdddddddssdy9-7qidddddfuw2-489wdssy9=&70ydddassasdddaqq9#",
"$59wiffddddssssddfffaiiie9,<8eryisssssddddddddfdwq>&>4sddfdddddddt96-48pdddddddddsy9-3qidffdffur4:39y08esy9&;80effdsdffsaaay703#",
"*69wtpsaaaaappiiiiuipuiuw9118wetuaaaapsddddddday08:*,7udfffddddduw85;38wsdddddddsay9>760ippsffut8:36dpyq7q5=:999uddsspiiaaite8>&",
"-79qwwwerrttrrrreq09quye99428qwrtyttreeidddaueqq97>-17wiaaaappite964:279wsddddsspiq0130ertrriiyy9;26iddsi7q:>78990eertyyrew880,-",
":7900780qqq09900987656988853800087877789q087788764>;,59ewwqq0865542<;,3689qqqwwww6572,2669959wer9*>49twq98e>:3576679q0998896424>",
":46532<<33323345553332488733565322211122442222121>;=;;=->1,-,<,,>>:-=-><13322333<<24,:,,>:;>;>492@%:7877769:->,,,1445555552,,<1,",
">,:;-=*%$$#$$%&*-:,<11<1341,,<<,,>::;-=**==*=-:>>:-===&#+OOOO+@$%&&***=---==*&%%&-::=-:>:-==***&*&*,*;,>>,,=**=*%$$$#$%%&&*-><1,",
"23433223446778008566763,254467765433221111,:;,4555543433334443,--;:,1211231,::29997>*>13445687654366:--<12541<21<,>>::;-;>,1232<",
"4689876678990www086787514000qq00988777787631<257998998888888999874357875787459eerew6-256669www097685<<26800867766555555556677871",
"580qeewq00qweeeewqwwq8614qruipppiuytrrrew851<25qeq9etttrrreqqqwwweq98897578qteqwerq5=179ertyyuippuq2<<47etw9rtrrrreeeeeeeeew0951",
"50wwerrtuasaaappiyrew06<30upppaaassspyrrt691>26teqruuuipssdfdddffffddapputuasapiyrq4*<eusfffddddssu2<,39tteassssaappiuyytreww731",
"50wweryaffffffffdsrew06<19ippaaasssssspyq99<;16ruippppsareadaaadddddddsdddffddssae02%<qyffddddddsda4<,39rtudsssssssaaaaaaaait421",
"58eeeydfffffffffdfpre96,>8ipaaaaasssssdp5r9<=17wpaaasdaw66ydsssasdddddssddsssfsspwq2#48qddddssddssa6>>28rtpddssssssssaasssssy42<",
"57weydffffffffffddftw97>;7ipaassaassssi2seq<*<7wpsddfdiq66idsssaaddddddsssasdfdspw01#59qdsdssddddss7:>27rtadddsieissssssssssu62,",
"47qtdddfffffffffdddsq97:;7ipaasssaassp2sfeq,%,6radsssdsr9qsddsssssdddddssasddfdsiw01$58rfdddddddsds8:>36etddddpr78asssssasssu72:",
"480sdddfffffffffdddfw98-:7ipaassssasd3pffeq>#,8usdsssddsiadddsssssssdddssasdfffauw9,$36tsfdddddssdp7>>35wuddddarq0asssasaassu71;",
"38wddddfffffffffdsdft98=;7ppaassssdse0dffeq>+2qpdddsssssddddssssssssssssssddfffayq9>&35wttyuipppay731:37wpdddddptussssssssssy81;",
"37wddddfffffffffdsdfuq8=-7ipasssssdd2addfeq:+5qpddsssssssdddssssssssssassdddfffstw9>&269ewqq096796431-27qsdddddddsssssssddsst7<-",
"27edddddffffffffdsdfue0*=7yaasssssd8rdssdrq;+5wpdfdssssssdddsssssssssaasddddfffdyq9<$:6764431;-:1332>&28wdddddddddddssssdddse7<=",
"27edddddffffffffdsdfirq*=6taaassddwqadssdrq-@4wpdfdddsssssssssssssssaaasdddddfdfi091+@%$#@++#%&*=:>>:&29qpuafdddssddspaadddsq7,=",
"17edddddffffffffdasfue0=&5yaaassdt8sfddsdew-@4wisfddddssssssssssaaaaaassdddddfdfdw91#,122222344444122-29qasaiffffdddippiisddw8<=",
"17essdddffffdfffdasfyw9=%5iaaasdy6spaaapue0*#4wisfdddddsssssssssaaaaaasddddddfffft9,@7899900qqwqq0754-18edddpdffffddupappuffw7<*",
"<7essssdfffffffddssdyq9=&6paaast9iddsapisw0*#4eiafddddddsssssssaaaaassddddddddffft9<+8etuasddsssspi93*18edddsdffffdfupapptdfw4,*",
"17wssssdfffffffffdsdt08==7passu8pssssssssww-@4eiadddddddssssssaaaaasssddddddddfffy92O7wtfffdddssaase5%19wdddsdffdffduaapprdfe3,=",
"16wpddddfffffffffdsdr05%-6ippy7upituuiadaee:@4eipddddddddssssaaaaassssddddddddffay92O3qyfffdddssaasr5$19wddddfffdffipaapirffq4,=",
"<6eudddffffffffffdade94&;4yaa7wapufffdiaprr1#4ripsddddsssssssaaaaassssddddddddfpuu81+<0yfffddssssssr4$190sddffffffsypaaiuwfa06<=",
"17etssddffffffffffsdr63=:3es90asiifffffppew<%5ryussdddsssssssaaaaasssssddddddfauuu8<@<8yfffdddssssdw<%208ydddfffffdyuiiuetfyw71-",
"18etpsdddfffffffffdat63->4w00sssipfffffapq9,&6ryudddddddddssssssssssssdddddddauyyt0<#39tffdddsssass5,*<98qdffffffffsyrrwufdrr9<-",
"28etussdddfffffffffut77:<580adssipfffffsu08,=7eypdddddddddssssssssssssddddddpuyttr0,$70rsddsssssasu41=>79wdfffffffffdauaddtweq2-",
"29wtypssdddfffffffdut98:,00wtassupffffsyyq91-7eupppipddddddsddddddsssssddddiyytrew0,%9weadaaaaaaaay52-;50ydfffffffffddddsyewrw4:",
"29wrtipassddfffdauuutq8:<0q9rtaaupfffsttyw82;7yyuiuuyupassdddddddddssssssdpuytrwq09<&9weifsssaasssu62-;8wtuadfffppasffdpytreee4>",
"28qwrrrrtpsddsiyyyuuyq8;29q90rtpapasayttrq83>8yyuuuuytyiiipasdddddddsssssiyttrw00971*70wraddssssdsw7<=3rwwqwyyyeqrrwqeyutreeew5,",
"360ewwee080wwqqqqrtteq8;<70q9ee089q990qww083,7ryyyyyyrwwrtyyuuuutyytewerrttrew98764,=370werrrrryyw96>&5rewq0qq080eeq98779qwww951",
"45787665421576667878897;:3677097788778777652,70eeeeew08890998877778886656778887543<;=>1577773,,14551-#;qreew5>,259ww074224576431",
"132<,:;==***>,<11<<<<<:%#%*;>:--:>::::::,<<>>25534555433343221123334543<,11,>:;;-=*%%*-:,<<>;-==:>:=@o@*====#$%#@@#%&&*====-;,<,",
"><1<:----=-=*=--*%%*;:-;:>,-%=::;=**=-;;:>::<2221,,>>,2321<<<1,>,,,,:-====:>>:=**====%&**&%%%%$&;;--=;;*==*$#&;======$%>,<<<111,",
"><3336888741,:><<:=>2468qty1*,355322442,;:>157880974<18987666661,,,<,:;>,1456677908773<<232<>=*:367ee983;><;*,7766665><0qqw9863<",
":,249weewq0985343<-<48qetey2&39988899986690870wq00081<9qettttrrw85432,:<2278779wereq975678753=-257qeeeq8233:=19ytrw09239wyte984,",
";:60tyyuassssa9552-16wupuer2%10000werupaaaaatttwq0q01,9rasaassaasauq4<:,4490qryuiuyyuipiuwq85=-578ttrrrrq53:-2wupat09120idpapw4>",
"=49rffdddddssii973=28uadstq2$;9qqtiipaaaaaaaapitewq9,>7raaaaaaaassss01-:58qtaffffffffdddddu07--580ussaasu84:=2esdsse0,10asaadu5;",
";79iffdsasssspiw71*30usdfr81#=4qussaaasaaaaaaaaapyq9::40pppasaaddddfr7=:9qyfdasdddddffddssdw0;*58qiffffdu95-*4rsssae0;<9ppsadi8-",
";8wiffdsaaaasipr8<*70ydddr8<+-6qpsaaassssaaaaaaadaew;;18passssdpupaa07=>weyffdasssddsssssdfw9-&40wafffdsy95=*7eddaae9;,8passdpq=",
"-qwiffsiiiiiiuar0<*78tdsdrw<X,8edsaassasssaaaaaasarw;;28assdsdapapiaq8*-0rufddsasssssssssdsw8=&6wesfffdsuq6&%9esssse8;,8ppsddpw-",
"$weuddpddayyuute9<&49qipste<.,8wfdssssspaassaaaaaar0;;20dddddsdddssse8-&68qaddssassssssasssq2=&60efddsapsr8&%0wssasr7-,9pasdaiq:",
"#8qudpsfffddsiue8<&40qupdre< >7qddddsssapaasssssaaw9;-3wdddddddddddde8;*80wrsdssaasassssssd9,-*68wfdsaasdy0;%0wsaaae6->0assaprq1",
"@69yspddfdssspie8<&20quadte< :70ddddfsddpppssssssp08;;4edssdddddddsdw7-=79eiradssaaaaapassp06-*47efssssseww<&9wsssst5->9asaipee1",
"@36rdssdddaaspie8<*10wradte<.;70afddfiaaspassssssy08:;2wdsddffddddssq5=-67wdueyssaasssaassuq7;=58rdssddtqwq<*7wdsdsy4->7sspisre2",
"$369padddddaaaiq7>=19etssyr1o-7qrdfffsiadddssdddit97>:18sdddfffddddpq4-;67qaaieessddsssssatq7;=70esddddwwe0<=6wssdsu3->6aappdyw<",
"*608eutrtrrrtur05;=18wupiyt1+=6900ereqqew9epppuree97<>14qpffffffdsuew8::890quaaysdffdddsuwww7>;5qwupasste09<-48pssar3=>5yaasar7,",
";4899rw90q951<361=*<49eerte2@&<556698763<234899998761<1379qwerrreqqwqq2:59990qreq0etyyrw98887,:4790qqq0ew02:;230ryt91=>57rtrw85:",
":257674336753121=%%:,<34565>#$=,12244<::>>>;;25555441<<246668qew00qqq02:2555786334577651<1234,;25777766763>-;<<2699,;=:359q9652-",
";>,>-=*%$&===***$@@#%####$@+++$&**&%%$%&***&&&=:,<11,>:><<<11233334432,:<11<>-&&&*===-**=-;:>;=,11,<>=-;===&*=*&=-=&*%*;:,<;-;--"
};
