/* XPM */
static char *cfa5ff8fdfd74ad1a425c6609de0709725U31QYWSdlroknN[] = {
/* columns rows colors chars-per-pixel */
"64 64 36 1 ",
"  c gray45",
". c gray46",
"X c gray48",
"o c gray49",
"O c gray51",
"+ c gray52",
"@ c #888888",
"# c #8E8E8E",
"$ c gray57",
"% c #959595",
"& c #989898",
"* c #9D9D9D",
"= c #A0A0A0",
"- c #A5A5A5",
"; c gray66",
": c #AEAEAE",
"> c #B2B2B2",
", c #B7B7B7",
"< c #B9B9B9",
"1 c gray",
"2 c #C0C0C0",
"3 c gray78",
"4 c #C8C8C8",
"5 c gray80",
"6 c gray82",
"7 c #D5D5D5",
"8 c gray86",
"9 c gainsboro",
"0 c #E1E1E1",
"q c #E4E4E4",
"w c #EAEAEA",
"e c #EFEFEF",
"r c #F3F3F3",
"t c #F6F6F6",
"y c gray98",
"u c #FEFEFE",
/* pixels */
";:-*==;>>:;,1,*$*&*-;:::;---===*=;;=-*:>:-;-,>:-;&+-,=;,>:--===*",
",5799000008992;,4890qq885,<79799973;;5q0q0w6ww0851%28670ww68743;",
",57yyyyyuuute5$>8yytttte6,<8ertre72;;9uuuuu7ytyq84%-9yywtyuur67-",
":8eytyyyytrtu1#;wtuyytty9>>3eyyttr8;-0yyyyt6ttyyw6%-wuutyuyyt09=",
":0yttuuuuuuut1#;wtuyyyttq,;>tttytrq-=7yyyyt8rttyt7$-tuuuuyyytrq=",
",qttyuuuuuuuy<@-wuuyyytrq,-6uyttttw-:8yyytt6ttttt9%:ruuyyyytrr0=",
"<qttyuuuuuuut2$;8uuyytrtw>=7uuyyttw-,quuuyy8ttttt9%<0yytttytrr8*",
"<9ryyyyuuuuue4*;7yuytttye:=7uyyytte;,quuuuy9trrtt8=38tttytttrr9=",
"<qwtyytyyytr74:-4yuyttyyw>=8uyyyttw::quuuuqqttytw4:470tttrrrrr9-",
"<0qettttrr0874-:37tttyrw0:-7tyyytq8>>55wtt7wwee984,4568rreww734;",
",57544,2511<1>&:245776685:>97585454:,1532216665653<222312>:<,,<=",
"%=&%%#Oo##@@#$#*==*=*&&&=*&&$@&%&*&%;:=*&&%$$$%*->:>;=%&&%$$++$#",
"-5541:#&:,3332,,-,3444776422<&1841683,;4;=,22221<3,12311125897q1",
"%etrt6$:6ryyyyt2*28ttyyerr705%3yyyyy8:;56846wwtr72-,8wtewwrrrrq2",
"&errt8$>wyyyryy3&,wqqwwrtt8t7#2wrre07;;5euuuurtyw1&1wyyutrtttt0,",
"=wytt5$,qyr35yy5&:039rretqwy7#5044qry>;7yuuttttyy2%1rytytrrtrt0;",
":wtty9$1etr30yy5&393qrqtt6yy6$7u6quuy,$3uuyye9qyr5%<eyytttrrrt9&",
":8yyy9&1errttyt6*50rrreyr8ye3$7uyyuyy1%2ruuy768yq5&:qtyyttrrtr7*",
">39qw8-2qewetr04=18qeewr9q962&5yuytyr3-77898899q82*<6qttewwq075-",
";,<134*>541>><<:$*:1465511<1:&1;><2231-1;>,1<<>,,:%,32113211<,1:",
"&&#+Ooo@#%$#&-;-;;:=&$$$$$&;--;:>-%=;>>:;=*;;;::>>>*&-**=-==-;;-",
";645456531>*14680wew94521;37887wwee009473,<4889999q<,8qqqq8q753:",
"=6rtyyyyr0,&56qtuyytt9074,790wwuuuuyut797127etrrttq>:tyytqqyr96>",
"=4tttyyuut;$2ruuuyttqqrq2>68q0euuuuuu9eq9120ttttrtq;:tyyt8tttr9;",
"&5rtrryuuw;%87ryuytt9rrw2:6yyyuuuuuuu6yt0<<rtttttt9*;rytt8tyttw-",
"$6ytrryyyr=%8w4uuytt9rtw3;9yytyuyuuuu9yte>>tttttty9->ryttqwyyyw=",
"&7ytrtuuyr-%8uq9uutt8tre3;9yttyyyuuuqwyyr:<tttttyy9=>ryyy9tyuye*",
"&8yttyyuur;%6yu8wwry9trr4-8yyyuyyyyy7uyyr:1rttttty7*-eyuy9tuyyw-",
"&7ttryyuye>&7wur7ett9ttr5=7yyyuuuyyqwyytq,:9tttttt5*=qyee9e1yyq&",
"*7uyttyye7<*7tyu0qtr0rtt6=4yyyuuuuy8erw091258tttt06-=8wwt9teyu0&",
"-7890q0q74,=59qq8886qrtr6;2qryyyuuu0q9876<576990q85;-578w9w0795-",
"*,>>>,>>,>=*,,>=;>1::<243-36553333121<11<,141,22<<>&%><,--=-;>1;",
"%$$$$#%*::=:-%%*&&$&&&&&=$*-===*&+%=;;**=;::>:=$.,,>;=*===&&%&&%",
"=,1235,<9865<*14567786411*,9q0652=-79q095;;29we1@0ww5;:57009991*",
"-60etytqer092%3qtuuyuuur7%1r07wt7,:8yyyyt3=6tyt8$9trw-:69wwerr5*",
"-8yyyytyuyue1$6tyyyyyuuy5$,8qtrrw<:8uuuuy7&8tyyq$5rre==0wqrrre6$",
"=8yytttyw3tr5$4tyytyyyuy5@-wrrrrw>:8uuuuy7*8yty0%6tte-%8trrrre7#",
"&6yyttttyrye6$3etyytyttt5@*tyyttr,:0yyyyy7-9yyy9&3ttw;&8trttyt7%",
"%5tyytttuurw6*49rttyyyyu5@=tytyye1=8yyytt7=8yyu9*,60e--6ytyttr4%",
"=490qqq097004;48qwqeyyw92#>qttte7<*3eyyyr6;40qr0:>tq4-:39qqqq73$",
"-2,>11<11,>22>11,>>,1,,,;$*:<>>;-*$;,111,,*;;;>4&%432>&::<21<>-=",
"==*%%&*--:>-:;::-=*%%$$--**%###++#%&*%#&-=#====*&-#&==%%#@++@%-=",
"<3533467433:179976542;-1446554443121124682&1478861=,54444333342>",
"1670tyyte85:<wertte04,*49qweqttyyyyrertr01$8yuyyy4*<9wtttrewq03;",
"<7qyuuuuyw5:;errttt08,%4rty9<rtrtyyyytyy0<%4yytyy7&,8tyrwttttt5=",
"<8yuuuuuyy4;;ertttqqw,@5ttte9tttttyyryuy9,%5yyytt8%>9yyq3rttrt6*",
",qyyuuuuyu7--ertty5yw>#9ytttyttttttttyuy8:%278877>&,0yytettttt6&",
">qyyuuuuty9;=wrty7rtw:$9yytttyttttrtyyyy8,X&%##@*=#,0ryytyttyt3%",
">qyyuuuuty9;&wrt8qttq:$9yyytttttrrrtyyyuw,#,<<111>*,0ttuuywewy4%",
">qtyuuuuyy7-=et9qttr0;$0tyyyttttrrtyyyyue,%8tyytr9&,qytuuyweqy2$",
":9yyuuuuyt6&-wq8werr0<$0ryyyttrrrttyyyyyq,@7uuytrw%,0yyuurre9y1%",
">8tyuuuuut4*-86twuut0,*9eyyyttttrttyyyyq0,#6uyytt9$,5yuuur09qe5&",
",8wtyuuuur6;:4etwuur7>-9rrtyyytytttyytq97,*6tttrt5&;6uuuuuyrr77*",
",69qeyyrqq7;,48eeyr97,;0qq0wrtyyyyttrq964>=6eyttt5&,79ee0qqw077-",
",433<133454-;34323233>:79974676656444542,=%<44223,+<75<,363,131;",
"--%#@@$%$$*#@$#$$#$$*&=:;;-::--=--=&%*%#@+O@$#++%#oO@+X+oOO@%%**",
"*:144<;-=%>373%<<,<>;>1442=35543;-*&-<1354<:,>%%<561=*%443><762;",
"%4eettr4>&4r01#459qrrrq954*5rrrrtq>%,5qrrrrrw6==2qwq4=&0t9,<rrq-",
";8uyrtr0>*7tw>o2rrrtrrrre5%<erttrt4#5ryttyyttq;&4tuy7=*wt0:>etr;",
";9urrqw0,*5rw<o4yrtrrtrrt6$<tyytrr4@4wytttttt0=*6yyr9*=qtq;>eye>",
"&7ryutr9>%5ww<X3yytterttr4$2yyyyyt4@28etrrtrt9**4ytt0>=qrq=>tr0<",
"$3tyyrr9:%5ww1X3rutrttttq2%<tyuyyt2#10q0tttrt8;=5tyw6,=qte*:rew1",
"=3776522*%2902X,2443<48651=;5qewq75&24900weq54:-48005;*4w9&-9w7;",
"&;=&&=&%oo#$&# @%%$@###-;:*=::<211<*;:;&&=-&%=*&::--*@$%-*+%:>-$"
};
