/* XPM */
static char *_00910bba1794f39d270fb7334797396aR2zr7BzsX5jhCp8[] = {
/* columns rows colors chars-per-pixel */
"64 64 105 2 ",
"   c #37291C",
".  c #3A2C1E",
"X  c #3D2E20",
"o  c #3F3021",
"O  c #443324",
"+  c #4A3625",
"@  c #4D3927",
"#  c #463528",
"$  c #4B3729",
"%  c #4D3A29",
"&  c #523A27",
"*  c #543D2C",
"=  c #583F2D",
"-  c #513F30",
";  c #56402E",
":  c #5B422E",
">  c #564130",
",  c #5C4432",
"<  c #5E4835",
"1  c #60452F",
"2  c #684A2F",
"3  c #614633",
"4  c #644A35",
"5  c #694C36",
"6  c #664C39",
"7  c #684C38",
"8  c #6B4E39",
"9  c #694E3A",
"0  c #6B4F3A",
"q  c #6C4F38",
"w  c #6D4E3A",
"e  c #6C4F3A",
"r  c #6E5037",
"t  c #6B503B",
"y  c #6C513A",
"u  c #6E523D",
"i  c #725137",
"p  c #70523B",
"a  c #71543B",
"s  c #72543A",
"d  c #73523C",
"f  c #72533D",
"g  c #73543C",
"h  c #70553E",
"j  c #72553F",
"k  c #76563F",
"l  c #78573A",
"z  c #75583F",
"x  c #79593E",
"c  c #6E5742",
"v  c #715440",
"b  c #765740",
"n  c #735645",
"m  c #785741",
"M  c #755841",
"N  c #775945",
"B  c #785841",
"V  c #7A5B41",
"C  c #7F5D43",
"Z  c #7F5E42",
"A  c #7B5B44",
"S  c #7A5C44",
"D  c #7E5E44",
"F  c #7D5C47",
"G  c #755B49",
"H  c #7D5E49",
"J  c #7E6046",
"K  c #7E614A",
"L  c #7F614E",
"P  c #805D41",
"I  c #815E45",
"U  c #805F49",
"Y  c #826046",
"T  c #826146",
"R  c #80614B",
"E  c #83634B",
"W  c #84634B",
"Q  c #87644D",
"!  c #8A674D",
"~  c #85684D",
"^  c #8C6A4B",
"/  c #8A694D",
"(  c #8A684F",
")  c #846651",
"_  c #886751",
"`  c #846852",
"'  c #8A6952",
"]  c #896A53",
"[  c #8C6B53",
"{  c #8B6A55",
"}  c #916E53",
"|  c #917054",
" . c #927154",
".. c #92715A",
"X. c #93725B",
"o. c #9A775D",
"O. c #99795E",
"+. c #9D7A5F",
"@. c #9C7B62",
"#. c #A07F65",
"$. c #A18067",
"%. c #A4846A",
"&. c #AA8769",
"*. c #AD8A6F",
"=. c #AC8C71",
/* pixels */
"y ( R 8 : + 4 4 8 e 4 , 4 4 3 ; : * % e f W 8 4 4 = & & : , , & I 4 3 b f 4 , 4 8 y 3 3 3 , 4 8 4 , * * = 8 , : 4 3 = : * 4 5 8 ",
"8 | ] D O # 5 S B 4 4 , , 4 , , 3 * 4 8 : 3 , 4 , & , , ; * * = B 5 h u e 4 = 3 8 3 & 4 f N 8 , = 8 3 = = , % 5 4 , = * 4 y f 4 ",
"4 D +.h ; , & B l 4 e : 8 5 3 3 = + @ 3 , * = : : * , 5 : * O P a y y e 3 5 1 3 , % * Y R X.B , ] L b : 3 3 & 3 : : f = 5 k B 3 ",
"y 4 3 : C 5 y : * : : , 4 : * @ % 4 , & & , : k e 4 * & = : $ p 5 y 5 u y 8 4 3 O   O C @.Q p f ] n k : : 8 * : a 5 4 + 4 h 5 3 ",
"M y * 5 B 4 b i : @ X o O $ * k 5 4 p h , @ & O , < + 3 y 5 3 @ 4 B 5 , , 8 : : 3 : : : 4 8 4 v u D 1 : 3 : O $ : : % O 3 ^ 3 5 ",
"y 4 = 5 y 4 y f R k : . y k a z 5 4 h b C 8 : O y ] h Y h B 4 3 O = : % + 3 f k f y B h > * , h 4 : O = * $ * , , , , ; * e 3 h ",
"5 * = C k y h J D X.C % k 3 8 8 e y y 8 Q _ : * W k h e 5 4 p 3 ; ^ x 5 & Y k h f R B k 8 4 % % + O + * u 5 D 8 4 u S e % 8 8 8 ",
"3 ; C p x 5 5 4 M U 5 + , : u 4 3 * = 4 N B : + p h 5 5 3 4 4 * , k y , 4 b 8 k e k 3 4 8 8 4 v k } D B S u f 8 6 8 y 4 , , u 8 ",
"+ a k m 5 , u : : 4 3 + 4 : 5 3 = 3 : : , , @ % + 3 & 5 , 3 3 1 Y 5 B a 3 B k p 6 : : , 4 8 * 6 8 h b 8 8 N B 6 6 6 6 4 , * 4 , ",
"; 3 : 3 , : h 5 * % O . $ : , , e , 8 , : * = 5 3 5 3 * * 4 8 ! x 5 5 k 3 5 4 , 6 5 * * < 8 3 4 f 4 4 y U 8 5 3 3 3 < , : % # # ",
": 3 3 , * * 8 3 * % % & * $ , = u 3 4 : & 8 e 3 e 4 p y : = * e y 3 4 B x & 3 8 4 D f 3 , , , 3 e 4 4 b e 4 5 3 , 6 , , , * O , ",
"4 : 4 , : & * : 4 B 5 , , 3 + & , : 3 : 4 u 8 4 f p x 5 e 3 3 4 8 3 , 4 : O 6 { B y 8 = : : % * 3 3 4 b 3 4 e 4 n 4 3 y 8 : f u ",
"D 8 * , : * 3 R y f Q 8 e 4 e ; @ $ * 3 3 p e 4 4 3 4 C y 3 = ; S 4 8 4 4 : , X.k 8 4 3 3 , @ % @ * * 4 3 b o.I e 8 u : : 4 H M ",
"f 5 4 % * 4 b h 3 8 f 8 h b e 4 $ O 5 4 f 5 b 6 h 4 4 y 8 , h G G 4 : : v 4 * , : ] 3 , 6 4 % D x k A D e ; k k I , , , 6 e A B ",
", 4 8 ; * p f 4 4 f B D y f f 4 @ 8 3 b B h S 4 5 y H f 5 3 [ ] < O : ( K M M & $ a 4 y : = m f v 8 H k k h = 4 C 3 3 6 8 n D 5 ",
"4 t 4 * h ] e 4 4 e 3 3 u 5 y x + = a M h 8 M ] _ D 4 y y B R B ; + 5 S p h 5 = % * & 4 4 8 y 6 8 5 ! R R h D 4 5 4 3 6 8 b l 3 ",
"3 h 3 % *.X.R k 5 : = , * : y e O 5 8 u t 8 Q ] R f 3 B h k f : & & y 8 B k p 5 e % = 5 : h h f 3 5 4 u 8 8 5 8 * 3 : & & 5 e f ",
"6 = , 8 o.] ) R : 4 , 8 8 < , 3 * h 8 y y < t H 8 5 B f 8 D R D : 4 b 8 Q D B Q x 8 % @ * Y y 4 ] %.e : 3 3 3 : : 4 y < O f B e ",
"3 , 4 , X.{ R A : 3 = 3 , , 8 : * 4 y y 4 y 8 B p y Q y A 5 B D : 5 ! 8 f 8 6 M r Q v X : 8 4 R %.X.Y 4 3 , , , 4 : , , D D 8 4 ",
"3 4 & * B C b 8 * : = < , , , , , 4 8 p f e b h D R Y e 5 : 5 p * , D f Y h 8 , , @.( O 8 y u D ` } 3 * * v y : h % @ 8 8 u 8 , ",
"3 5 , * k y 3 : 3 = , * , 6 , h , 4 4 4 f e B i p y p f A u e u 3 < u e C R v , , u p O B y 4 y y 4 6 , * 5 u 8 y O X % 4 : 6 c ",
"v 8 : % y y 8 4 B 4 * 3 6 4 4 4 + 8 5 5 p 4 5 e B 4 5 f 8 u 4 H u % 5 8 B h u * ; > * @ y 4 8 8 S u , 6 < : 6 , , X . . 3 u X.` ",
"6 : # + ; B B ] X.e 4 f N u y 6 @ @ & e : : 5 5 k 3 3 4 3 4 A ) G # 3 4 4 , 4 : : , : ; 8 4 Q K M 4 u 4 4 = , + $ < # $ 4 R X.` ",
"8 > , Y I * R X.Q , f 5 e f 3 , 4 5 u N 4 , , h M 5 y : v X.H S ;   + 4 3 4 4 v 6 4 < , 6 u h y < , < , , : 4 u $.$.Y @ , H ` ) ",
": % & 5 R e M Q b * 3 , , u , f 4 R ) 4 & % 3 6 h 4 * ; N L v = # : * # O y R R 8 * ; : * 5 y 4 $ % 6 R y 8 H H Q | a 3 * 6 4 < ",
", 8 B B h e , : & : 8 3 3 , * 3 B D k : ; % , & , 3 * 6 H n 6 3 p : y 4 & & B ~ p 3 J y # * , % X > ( B 6 S t h 4 : , : O y < < ",
"D S k h k 3 3 & = 8 , * * O @ y Y k 1 = A e $ & , 4 , < 6 3 , 4 u y 3 3 , 4 & y 3 = 4 , X @ Q D u > R N v h 4 3 < : 8 4 % > * : ",
"M 8 5 4 : * % : 8 , * % , $ , W 3 , H M ) R u * % , , * $ 5 5 8 y 4 u 3 f y 4 , 4 , < > Q ( R h u 8 y S u y 8 * , 4 6 3 ; # % 8 ",
"h B 8 8 e 3 , * , y H B R : & e B A ] y S N 8 H G % . O & x f f 8 8 B 8 4 y 4 : % * > 8 ! h B 8 8 8 & H f 4 : 8 f 3 , = & . 3 y ",
"y h 4 < 3 * , * , 4 v p 5 & 4 f B y y 8 t v u n y @ O 4 k U f N e R R 4 v S B < * O D Q b : 5 , 3 3 > b 5 = 3 = , , & & O O M u ",
"B 3 , 3 * * 6 : 4 3 e e f : 3 D D b u 4 8 B 4 5 4 8 ; e 8 Q X.[ b O.X.D e k p e ; O Y h B 4 * , 3 , = 5 x 3 , , < 8 , + # & h 4 ",
"3 : * = @ : : * u B B b 5 3 & e 6 8 8 5 : : , 4 3 * 4 u R #.@.X.b { X.U 8 A u u 8 % p f b U 4 4 e 1 3 , 4 : , u < v B 8 , h * 1 ",
"3 , * * 1 ! : + e 8 5 e 4 < * f 6 B y 5 f 3 * : = @ 5 y u Q ] U 4 8 A 8 3 D A n 8 % b h u n 4 4 5 4 : ; , 3 f h 8 4 e , 8 h * < ",
"1 3 : = z k @ = p 4 3 : f f , u u 8 4 e e 3 = = = = 5 3 b h 8 4 = u , 4 , 4 4 4 , + ; e 3 8 = , , : & 4 M h 4 6 4 3 : * A y : 3 ",
"2 r 3 , , , + x 4 e , 3 ) _ 8 , y 8 u y 4 8 : , , 3 B h e h 4 : * , 1 3 4 6 , * * + X % , = O * = < 8 8 f 8 8 1 4 6 * 4 f , * + ",
"+ ; 1 3 5 : & : y 4 , f n B 3 * e 4 8 u 3 , 6 < , * k 5 A b , , * * 3 , u 6 , : * # , 3 3 3 3 3 $ 3 k 8 v 8 : 5 : : , 8 8 , *   ",
"h B a 5 3 4 , + Y k , , , : & + 8 4 8 u < , 4 : 8 * B 8 v e : 3 , , 4 3 8 6 , 3 $ & y * 5 8 4 3 4 f f , 3 , , 5 : * 6 4 4 * * 4 ",
"h B u 8 : , 4 + B B 8 4 = : * o , , y h , * , , * = , b 8 B A 4 : 3 : , 5 4 & # % 3 I y y y 4 3 3 < b 8 5 % + @ % $ 3 4 , & : : ",
"8 : M v 8 6 8 * + 4 4 C & + O O # 3 y 4 : , 3 * : 8 , 8 e M t , , 4 = : = @ . * 4 , 5 e 4 f f 8 e , &.} , * 5 5 8 , 4 B 3 % : : ",
"~ y 4 u , , , : # O % % @ : 4 , * + 4 4 3 , , * 4 6 3 * 8 M , : , , & % % = 4 8 h f h 8 4 k y h 8 , | P , h b u h 5 * k h * = M ",
"y , : < 6 , ; & o   . : x a e : B C * * = % % 5 M y y @ + , & & % * & , 8 k B B B 5 u 5 3 4 e { Q , @ 1 5 Q e 4 8 3 4 u [ y 4 h ",
"3 & , X.X.4 6 4 # O + 5 4 z D y h 4 8 8 , O * k y f U R * O # * , e 4 4 h 4 k k y h h h h 4 8 Q W = , y 6 6 4 3 3 M 8 , [ u 8 4 ",
"* * 4 { H 3 , 6 # O , r h p Y p : 4 u 8 = @ 4 B 4 b f D e O + k f 8 y 8 4 8 4 4 y D k A e y D h 5 + 4 4 6 f 4 , : : , * 8 , = : ",
"3 , 4 K h : % % * * : e 8 5 B e 5 4 4 8 3 * , f , 3 f A l 3 % B h y k 8 5 B 8 4 y p C W 8 8 8 4 3 % B f 4 4 , , , = * = O # * , ",
", 4 6 3 = % 6 y ^ a : 4 4 : 4 , 5 3 3 e 6 = 4 , = 8 u 4 3 A : 6 4 4 8 h 8 y 8 5 3 8 f 8 , : : : @ 4 f 8 4 4 3 : & = : * O O & y ",
"% ; , $ # t 8 u G f * : 8 , , u 3 4 , 6 ; y e 3 * 8 4 4 : 4 4 * : 4 3 e 8 8 4 = : : u 8 * = : % * ( 8 , : : * * = = : & , * % * ",
"+ u 4 o h y 8 h u 4 * p y 3 3 8 3 : : , O 3 8 3 , 3 3 4 : * h B % 4 4 8 5 4 4 * * 8 6 , * * b * h 8 8 4 : , , < % % + % ; 4 : + ",
", S S 4 8 M y 4 8 8 % C f , , , * : , , X & 4 M 3 & 3 5 * 4 ( k # + e u D 8 , 6 6 8 M 4 ; ; % 6 8 u , ; * % % % $ 8 R B ; ; * , ",
"4 4 6 ; J S 4 , h 8 : 4 p 8 4 : * : ; % O O = a : & * 4 , y : @ + @ : p h 4 * * , < 4 , : * o % * , % O   $ ~ | B _ ) Q < v 6 6 ",
", 4 4 * h y M 6 u 4 5 : C 8 4 4 : p 3 ; k 5 : 4 ; ; 5 5 * = 4 8 5 k : , : 8 y , 4 ; , ; * , , 8 y y B : O 4 | R p b v 3 & 4 4 4 ",
", , , , , y y h , 4 a 4 8 4 h u p y : : p 6 B D k y + O $ 4 5 6 6 W D D 3 , ; * , % % * h Y 6 v u u t u 4 , O.S A 8 3 * ; 3 R b ",
": * , < 4 4 4 y * * z h = p r B : , * k h 8 e y f k @ # h 3 8 8 e h D b ! u + 4 h 4 v Q u u y v h 4 , y t y M 5 b , , & 3 b Q D ",
": , , 8 : 5 y * % : : 3 : * : B < < u f 8 u u u 3 : * b M 3 8 4 f v M H A P 8 , B 8 H B 4 4 , , 4 , 4 @.{ < : p * , & & 4 b k 4 ",
", = : , * 3 3 * , < : , 3 3 + + < ` Q 8 e 5 A H 3 6 M B 8 4 4 4 8 u H H H B : * y t h 8 > , , , 6 , , S S : a 5 = * , , 3 3 h 8 ",
", ; ; : , % y : 6 4 ; , : : ; X K } ( 4 : * 5 , + b 8 u 4 : , * : 4 e k b 3 4 , t h 4 3 6 6 * , = 4 , ; & * u 3 , & * * u 4 u 4 ",
": * 4 , , o y B 4 , * 4 3 6 * + r p 5 = : 4 = e B I e v : & = 3 : , , = = = y y M y 4 > 6 3 * , * 3 4 , , h u R H 6 , * * 3 C 3 ",
"3 * 4 * * O $ C y e , , b h * R B 3 , , , 3 * 4 6 8 8 3 3 5 e 4 3 , h 4 y b 8 : Y K 3 , , 6 5 3 v 3 8 8 < t L G c 8 > , $ : 4 J ",
"= 4 * & X O O : 5 4 & * D 6 8 b 4 3 3 , , y % 4 y 8 , 6 , : 5 : = : : , 4 , * $ y y < , , u 4 , : * 4 , : y n G t , , < + : , 4 ",
": ; % O O * , 4 * f : 4 y ; B 5 4 4 8 3 * : + * h : = : & : : 4 = & & * * * u , 8 M 4 4 , , 4 = 3 4 & # p t 6 6 < * * $ + % * 3 ",
"& * * * O , 4 , * * , : @ * y , u b : 3 , ; % , 4 4 : @ * u y , * O # 3 v u u 8 , < 8 y : , , : p y - # 3 4 3 4 4 * # # * * * ; ",
"4 < < : , , f 4 , , * + O 4 6 u 3 6 4 , : * : e A e 3 3 p ] ] y : % 8 e 8 v 4 , , $ * 3 * , : & @ ; , = @ # ; ; + 4 : @ * , , 4 ",
"6 8 6 , * * 4 3 , 6 4 e 4 , 8 v 3 4 , , & 8 B f 5 e 4 4 f k k = & 3 y 5 *.=.S M , @ O # % % O 3 3 r : : p , # # 4 4 : = = u 6 4 ",
"8 4 4 , * & , 8 4 D 8 8 z 4 , * + * * > b v y 8 , f R ] y ] 5 @ * y u X.X.K y Y 4 : % y 4 h e e : 4 y 4 8 e 4 = 4 8 4 4 & B e 8 ",
"v ) A y , > 8 f 8 4 4 3 4 u v = , , O 3 4 H R 4 , 4 k h , 6 : @ & 5 < b R 5 : v 6 < : 6 4 8 y h 5 4 y , : , 4 3 8 3 3 6 * 4 4 k "
};
