/* XPM */
static char *aa947b58a396421edf254433ae39f0d9BsUUUjR44KlHWQdB[] = {
/* columns rows colors chars-per-pixel */
"128 128 14 1 ",
"  c #939393",
". c #979797",
"X c gray60",
"o c gray62",
"O c gray64",
"+ c #A7A7A7",
"@ c #A9A9A9",
"# c #ACACAC",
"$ c gray70",
"% c #B7B7B7",
"& c gray73",
"* c gray74",
"= c #C3C3C3",
"- c #C6C6C6",
/* pixels */
"---==**&%%&*&&****====**&&&&&&&&*===**&&&*--=*&&&&&*&&&&%%%&&&&**&&&***===--======----=***&&&*==-=********===******&&&&&&*****=-",
"=*&%$$#######$$$%%%&&&%%%%%&&%&&&&%%%$$$$$==*%$###########$$$%%%%%%%&&&&&&**&%%%%&**--%$$####$$%%$$$$$$$%%%%%%$$$$$$$$%%%$$$##$=",
"=$#@+OOO+OOO++++++@@##@@@#$$$$#@@@++++O+#$==*$@@@@@@@+@+++@@@@###$#####@@#@++@@@@#%&==$#@@###@@@@@@@@@@@$$#@@@++++++++++@@+O+@#=",
"=##+oooOOOOOOOOOOOOOOO++++@@#@@@+++++OOo#$==&#OOOOOOOOoX.XoOOO+++@@@@@@+++++++++++#&==$#@@@+OooooXooooooOOoXXoooooOO+++O++OO+@$=",
"*###OOOOOOOOOO++OOOOOOOO++@@@@@@++OO++OO@$=*%@OOOOOOOOOXX .ooOO++@@@@+++++++OO++O+@%*=$#@++OoXoooooooooooooooooooooOO+OOOOOO+@$*",
"*$##+OOOoOOOOOOO++OOOOOO+++@@@@+++OO+++O@%-&#@OOOOOOOOOoX..XoOO+++@@++++++++OO+++++%*=$#@OOOoooooooOoOoooOoooooooooOOOOOOOOOO+$*",
"*##@+OooooOOOOOOOOOOOO+++++++++++++OO++O#%-%#@oOOOOOOOoo.. .oOOO++++++OOO+++OOOOOO+%*=$#@OoooXoooOOOOOoXoOooooooooOOOOoooO+OO+$=",
"*##+OO++OooOOOOOOOOOO++++OOO+++++++OOOOo#%-$#@ooOOOOOooX...XXoO++OO++++OOOOOooo+ooO$==$#@ooooXoooOOOOOoooooOooooooOOOoooooOOO+$=",
"*##+OOOOO+oOOOOOOOOOOO++OOOO+++++@+++Ooo@$-$#@OooOOOOoXX.XXXXoOO++OO+++OOOOOooo@Ooo$*=##@ooooooOoOOOOooooOOoooooo+OooooXXoooO@%=",
"*##+O+OOO@OOOO+OOOOOOOOOOOOOOO++@@@++Ooo@$-%#@OOooOOOoXXXoXXXoOOOOOO++++@+ooooooooO$&=$@@oooooOOOOOOoooooOooooooo@OoooXXXoooO+$=",
"*##OO+OOO@OOOO++++++OOOOOoOOOOO+@@@@+OOo#$=*#@+OooOOOoXoooXXooOOoooOO+++#OooooooooO$&-*$@oooooOOOOOOOOooOOoooXoooooooXXXXoooo@$=",
"&##@+@@@@+oOOOO+++++OOOOoooOOOO++@+++OOo#%=*##+oooOOOooooooXXoOOooooO++O+OoooOOOOo+$&=*%@oOOOOO+++OOOOOOOOoooooooXooXXXXXoooO#%-",
"&$%#OO+#+ooOOOOO++++OOOOoOOOOOOO+++OOOOO#%=*$#OooooooooOooXXoooOOOOoOOOOOOOoOOOOOo@#%=*%#oOOooOOOOOoOOOOOOooooooXXXoXXXXooooO#&=",
"&#$@OooOooooOOOO+@++OOOOOOOOOOOOOOOOOOOO#%=*#@ooooooXoOOooXXooOOOOOoooooooOOoOOO@++$%=*%#oooooooOOoooOOOOoOOOOOoXXoooXXXooooO#&=",
"&##@OOoooOOOOOoO#+++OOOoOOO+OOOOOOOoOOOO#%=&@@oOOoooooOoOooooOOOOOOoooooXXooooOO+OO#%=*$$ooooooOoOoooOOOOoOOOOOoooooooooOoooO#&=",
"&##@OOooO@@+OOOO#O+OOOOOOOO+OOOOOOOOoOOO#$=%#@O@OOOoooooooooOOOOOOoooooooXXoXoOOOoO#%=&$#oooooooooO+OOOOooOooooOOoooooooOooOO@%=",
"%##@+oOO+@+OOOO++OOOOOOOOOO+OOOOOOOOOOOO#$=$#@+OoOOOoooooooOOOOOOOOoOooooooooXoOOoo#%=&#@oXooooooooOOOOOooOoooooOOooooooooooO#%=",
"%@@@@@+++OOOOOooOooOooOOOOoOoOOOOOOOOO++#%=$@@@+++++OOOOoXXoooooooOooooXXXoooXooooO#%-%#@+oXoXoXXoooOOOOooooXooooooooooooooo+#%=",
"&@@+@#####@@@@+@@@@+@###@@@@@######@@@#$$&-%@@@@@@@@+@@@@@+O++++OOOooOOO@+O+@@+++O+#$=&$#@@++++++@@@++++++++@+O++++++@@@+++O+$&=",
"&@+@@$$###@@+++@@##@#@@@@@@@########$%%%&=-&@@@@@@@@@@##@@@@##@@@@@+@@@@##$%%$###@#$%-=&%$##@@@@#@######$#@@@#@@@#$$$$#@@@#$#$*=",
"=$$####@@@+@#$####$%%%$$####$$$$%%$$%&*=---=$########%&%$#########@@@@##$&***%%%$%&&=--=*&%$###########%&&&$$%$$$%&&&&%##$$$$%*-",
"=**********=-----------==*===*&&&******===&&&&****=*===------==--=======*&&&**********===**==============--==**&&&&&&&&&&&&%%&==",
"%%%%&&&&&&%%%&*==---=*&&$$$%%%%%%$$$$$$$$####$%%%%$$$%%%&**=----====*&&%#@@@@@###@@@##$$%%%%%%&&%&&&&&&&--=*%$######$$$######$$%",
"+++@##$#@@++++@%*=-=&%$####$$$$$$$$#####@@@@@####@++++@@+@$&=-*&&%%$$$#@@@@@@@@@@@@@+@####@##@@$#####$$%=-*%$@++++@++OOO@@@@++++",
"OOOOO+++++@@OOO+@%==%#@+OOO++@@+++OOOOOOooooOOOoooooOOoOOOO#&-$+++@#@OOOOOOOOOoo++++OoOOOoXXXXXoooooo+#$=*%#OOOOOOOOoooooOOOOOOO",
"OOOOOO+++++@+OOO+$**##+oOOO++OOOOOOOOOOOOOOOOOOoooooOoooOOO+%=$O+OoXXXX.XXXXoXXXXoOoXXXXoXXXXXooOooooO#$=&#@ooooooOoooooooOOO+OO",
"OOOooOO++O@+@+OOO#**##OoOOOO++++OOOOOOOOO@OOOOOooooOOoooO+O+$=%+++XXXXXXXXXXXXXXXX.XX.XXXXXXXXoOOooooo#$=$#+ooooOoOoooooooOOO+++",
"OOoOOOoOOO@@@+OOO$=*##+OOO+++++++OOOOOOOO++OOOoooooOooooOOO+%=&@@+XoXoXXXXXXXoXXXX....XXXXXXXooOooooOO#%-%#+oooooooooooooOOOOOOO",
"OOOO++OOOo+@@+OOO$=*##OooOO+++OO+OOOOOOOOO+OOooooooOooooOOO+%=*@@+XoXXXXXXXXXXXXXX....XXXXXXXooooooOO+$*-&$+oooooooOOOOOOooooOOO",
"oooOOOOOoooOOOOOO%=*##OOOO+++OOOOOOOOOOOOO+oooooooOOoooOOOO@%=&@@+XOXXXXXXXXXXXXXXX...XXXXXXXoooooOOO#$&-*%@oooooOO+++OOoOoO+OOO",
"ooooOOOOOoooooooO%=*##OOOOOOOOOOO+OOOOOOO@+oooooooOOOOOOOOO@%=&@@@oXXXXXXoXXXXXXXX.....XXXXXXXooooOo+@#&-&$OooOOOOO+++++O+OOoooo",
"oooooooooooooooOO%-*#@OOOOOOOOOOOO++OOOO@#OoooooooOoOOO+OOO@%=&@@@oXXXXXXooooXXXXXX....XXXoXXXoOooooO@#%-%#OooooO+++++OOOOOOoooo",
"OooooooooooooooOO%=*#@ooOOOOOOOO++++OOOO@+ooooooooOoOOOOOOO+&=&@@@ooXXXXXoooXXXXXXXXXXXXooXXXXoOOooooO$&-$#Oo++oO@O+OOOOo++++OoO",
"@OOOoooOoo+oXooOO%**#@oOoOO+O++++++++OOOOOOOOOOOooOOOOOOOoO@&-$@#@oXXXXXXXXXXoooOOXXXXXXXXXXXXXOOOo+Oo#*-$#OoOooO@++OOooO++O++++",
"@OOOOOOO@@##OOOOO%**@@oOOoO++++++++++OOOOOOOOOOOOOOOooOOOOO+&-$@##OXXXooooXoo+@@$#OXXXXXXXXXXXXoOoO@+O#&-$#+ooooOOOOO+++OOOOO+O+",
"#OOO+OOO#$@OOOOO+$*=#@ooOoOO+++++++++OOOOOOOOOOOOOO+oOOOOOO+&-$@##oXoXoOoooooO@$@OXXXXXXXXXXXXoo++++@O$&-$#+ooooo+@O++OOOO++++++",
"@OOO++++@@OOOOOO@$*=$@ooOOOO+++++++++++OOOOOOOOO+OoO++OOOOO+&-%@#@oXXXoOOOOooo++oXooooXXXXXXXoooO@@@++$%-%#+oooooO@#@+OO+++@@@+@",
"+OOO+++++OOOOOOO#$&=$@oooOOO+++++O+++OOOOOOOOOOOOOooOOoOOO+@&-*#@+XoOOOOOOOOOoOoXoooXoOooOoooooOoOOO++$%-%$@oooooo+OO+++++OOO+++",
"OOOOO+++OOOOoOOO@$&=$@oooO+OOOOOOOOOOOOOOOOOOooOOoooOOOOO@@#%=*#@+oOO++oOOOOOooOOooXXoooO+++OOO+OOOOoO#%-&$#+ooO++OoooO++OooOOOO",
"OOOOOOOOOoXXXXoo@#*&@@OOOOO+OOOOOOOOOOOOOOOooooOOoooOOOO+#@#%-*$#+@++++++@++@@+O+@++OOoO+@@@@@@@+OOOO+$&-*%$@OO+++O++OOOOO+OOooo",
"@###@@@@++OOOO+##%=&@@@@@#@@###@@@@@@@++O++OOOOOOOOOOOO+###%&-*$$@#@##@##$#$$$$#@#@#####$%%$$$##$####$%*-=&%$#@@###$#####$$$####",
"#######@@@@@#$$%%*-*##########$$$##$$$$##########$$$%%%&&&&&*-=&$%&%%$#$$%&*&%$$$#$%%%%%&&&&%%%%&&&&&&**--=**%###$$$$#$$$$$$##$$",
"&&&&&&&&&******==--=*&&&&%%%%$%$$$$%&%%%%%%%%%%&&***==============---=*====-===*===--==================-----===*********===*&&**",
"&**&&&&&%%$$$$$$$$$$$%%%%&%%%%$$$$%&&==***&&%$##################$$$$%%$$$$$$$#@@=--=**%$$$$$$$$##$$%$$$$$$$$$$###$$$%&**==--=%%%",
"##$#####+OOOOOOOOOOO+@@+@@@#####@#$$$&*%%$$$######@@@@@##@@@##@@######@###$$#@@@&-*&%$$#####$##################@#####$%%%*==&$$#",
"@++++++OOoOOooooooooooooO+O+++++++##$%&$#@@##@@@@@++++++@++@@#@@@@@@##+@@##@@++@&-%$@+@#@@@###@@###@###@###@@@+O++++O+@#$%*=&$@+",
"+@++++OOOOOOOooooooooooooOOOOOOOOO+@$%&$@+O++ooOOOOoOOOO+OoooOOOooooO+ooOOO+++@#&=$@+O@+OOO++OOOOooooooooO+OOOOOOOOOOOO+@$%=&$O+",
"++++++OOOOOOoooooooooooooooooOOOOOo+#%&$#+OOoooooOOOOOO+++o@OoXXooooO@ooOOOOO@#$&=#++OOoXXXOOOoOOooooooooo+OOoOOOOOOOOOO+#$=&#O+",
"+++++++OOOOOooooooooooooooooooOOOOOO#$&%#@OoooXooooOOOOO++OOoooXooooO@oOooooO@#$*-%@+O+ooooooO+OOoooooooooOOOoOOOOOOOOO++#%=&#OO",
"O++++++OOOOoooooooooooooooOooooOOOOO@$&%#@oXooooooXoOOOOOOOoXooXOOooO+OooOooO@#$*-%#@o+OooOOoooOooooooooooOOOOOOooOOOOOO+#&=&#+O",
"OOO++++OOoooooooooooOooooooOoooOOOOO@$&%$@oXO++OOoXooOOOOOOooooXO+OoO++Oo@ooO@#$*=$##OOOOOOOOOooooooOOOOoOOOOOooooOOOOOo+$&=&#+O",
"OOOO+OOOOOoOooooooOooooooooOoOOOOOOO#$&%$@oXoO@@OooooOOOOOOOooooO+OOO+OO++ooo@#$*=#@@o+OOOO+OOoooooO+@++O+OOOoooOOOOOOOo+#&=&#+O",
"oOOO++OOOOOOOOOoOoOOoooooooOOOOO+OOO#$&&$@oXXXooOOooooO++OOOoOOoo@+OO+O++oooo+#$*=#@@o+OOOOOOOOooOo++@+OO+@OoooOOOOOOOOO+#%=&#+O",
"ooOOO++OOoOoOOooooOOOooooooOOOOOOOOO#$*&$#OXoooOOOooooOOO++OOoooo@+OO@++OOOoo+#$*=##+O@+OOOOOOOoo@++++OOOO+@OOOOOOOOoOoo+@$=%#+o",
"oooOOO+OooooooooooOOOOoooooOOOOOOOOO#$*&$#OoooooOOooooOOOOO+Ooooo@@@#@+O++OOo+#$*=#@Oo@+OOOooOOOO+@@O+OOo+OOOO++OooooooOO@#*%#OX",
"oooOOOOOOoooOooooooooOOOooOOOOOOOOOO#$*%##OOooOOOoooooOOOO+@OOOOo++OOOO+@+OOO+#$&=$#@oOOooooooOOOO+@+ooO++OOoO++OooooooOO+#=$@Oo",
"oooOOOOO+OoooooooooooooOOOOOooOOOOOO#$=&#@OOOOOOOOOoooooooOOooOO++OOOOoO+OOOO+$%*=$##OoOoooooooOOO+++O++++OOooOOoooXooooO@$=$@Oo",
"oOOOO+++@+OooOooooooooooOOOoooOOooOO#%=%#OOOOOOOoO+OOoooooooooO#+OOOOOOOOOOOOO#%*=#@@+XOooooOooOOOoOO@@++OOOOoOooooooOOXO#&=$#Oo",
"oOOOOO+OOO+oooOooooooooooOooooOooooO#&=$#OOO++OOOO++OoooooO+OoooooooOOOOOOoooO#%=&#@@OooOOOooooOoOOOo+#+OOOOoooOoooooooX+$&=$@Oo",
"oOOOOO++OooOoooooooooooooooooOOoooo+#&*##OOOOOOOoOOOOOoooO++OoooooooOooO@@oooO#$=&#@+OO++++OOooOOOOOOO@+OOOooOOOOOoooooX+$%*$@+O",
"oooOOOOOooooOooooooooXXooooooOoooo+@#&*$$+OOOOOOooooOOOoOOOO+oooOOOoooO+O+oXo+#%=*$@+@@@@#@@@@@@@+OOOO++OOooOOOOOOOOOOoX@#%*$@+O",
"O++@@@@@@@@+@#+++OOO+##@++OOOOoo+####%-*%$@+OOOO++@@@@@@@++++@@@@@@@@##@@+@@@#$&=*%$#@@@######$$######@@@O++@@@@@@++++O+##%=$@@+",
"#########$$#$$$####$%%&%$$#####$$$$##%--*&%%$$###############$$#############$%&*--*&%$$##%%$$%%$$##############$%%$$%$$%&%*=&$##",
"*&&&%%%%%%%%%%%%%%%&&***&%%%%%****&&&=--====**&%%%%$$$$%$$$%%&%&&&&&&&&&%&&***==---*&&%%%**&&&&***&&&&%%&*&%%%%&&&&&*****=---=**",
"********&&&*==---*&**&%%&&&&%%%%%%%&&&&%%%%%&&&&**=====--------=============**====*&&&&&%%%&&&&&&*=-----==**&&&%%%%$$$$$$$%%&&**",
"%%%%%%%$%%%&*=--&#+@$$#####@#######$$$########$$%%&&&&**=-=*&&&%%%%&&&&&%%%%$%%%&%%%%%$$#$$$$$$$#$%*--=*&&%$$$$$$$####@@@@@#$$$$",
"######@@@#@$&*-=#OO+###@@@@++@@@+@@##@@@+++++++@#####@#%%=*%%#++++@##$$$##@@@@@+++####@@@######@#$$*-=*&%$@@@###@@++++++++++@@@@",
"oooOOOOOOOoo@%=&@+++oXooooooO+OOoOOOOOOOOO+OO++++++@@++#$*&$+ooOOOooOOOOOOOoOOOoooOOOOOO+@@++OOO+#$&-=%#+ooooOOOOOooooXXoooXoooo",
"XXooOOoOOooX+#=%+++OXXXXoooo+OOOOoooooooO++OO++OO++++++#%*&#ooooOOOOOOOoooooOOOoooOoooooO+OOOOOOO##%-=#OOoooooOOOOoooooXXoooXoXo",
"XooooOoooooX+#=%@@ooXXXXoooOOOOoooooooooOOOOOOOOOO++++O@%=&#oooOOoOOOooooooOOOOOooOOOOOOOOooOOOOO@#%-&#OOOooOOooOOooooXXXXoXXXXX",
"oOXoOOOoooXX+#=&@+XX.XXXXOOOOOOooooooooooOOOOOOOOO+++OO@%=&#oooooooOooooooOOOOOOooOOOOOoOOoooOOOO@#$-%#OOOOOOOoooooooXoooXXXXXXX",
"oooo++OoooXX+#=*@+XXXXXXoOOOOOOooooooooooooOOOOOOO+++OO@$=%#ooooooooooOoOOOOOOOoOooOOOOOOoooooooo+@%=%#+OOOOOOOoooXoooooooXXXXXX",
"XoOO@$+OoooX@#**#@oXXXXXOOOOOoooXooXXXooooOO@OOOO+OO+OO@$-%@ooooooooooooooOOOOooOOoooOOOOOoXXoooo+@*=$#+oOOOOOooooooooooooXXXX.X",
"XooO###Ooooo@#**#@oXXXXooO+OOOoooooXXoXooooO@@OOOOOOOOO@$=&#ooooXoooooooooOOOOOOOOOoooOOOooXXXooo@#*=$#+O++OOoooooooooooooXXXX.X",
"oooO+++ooooO@#=*#@oOOooooO++OOOoOOooOooooooOoOOOOOOOOOO@$-&#oooooooooooooooOOOOOOOOooooOOooXoXXXo@#*=$#+oOOO@OoXoooooXooooXXXXXX",
"oOOOoooooooO##=*#@OoOOOooooOOOOoOOOOOooooooooOOOOOooOoo@$-&#oooooooooooooooOO+OOOOOOoooooooXXoOoO@@%=$#+oOOO+OoooooooXooooXXXXXX",
"ooOOoOoo+@oO##==##OoOOOOOooooooOOO+@OOOooooooOOO+OoooXo@#-&@oXXooooooOoooooOOOO+O+OOOOoooOoooo++O@@$=#@+OOOOOOOoooooooooooXXOXXo",
"oOooOOoo+#@O##==$#+OOOOOOoO+OooOOO+@+OOoooooooOO@@oXXXo@#-&@oo++ooooooooooooOOO+++OOOoooooO+OoooO+@$=#@@OOOOO+Oooooo+oooooXX+oXo",
"OoooOOooO+++#$==$#+ooOOOOoo+#ooOOO@@OoooooooooOOOOXXXXX@#-&@o@$#OoooooooooooOOooOOOOOOooOoO@+Oooo+@$=#@+oOOOO+OoooooO+oXXXXOoXXo",
"oooooOooooO@#$**$#@OOOOOoooO#@oOO@+OO+oooooooooOoooXXXX+#-&@oO##@ooooooooooooooooOOOOOoo+OoOO+Ooo++$=#@+oOOOO+OooooOo+OXXXOoXXXo",
"XooooOOoooO##$=*$#@OOo+Ooooo+#OO+#OO+OoooooooooooXXXoXX+#=%+oO++OooooooooOOOoooooooOOOoooOooOOooO++$*@++OOOoOOO+oooooo+oXo+ooooX",
"OOOOO+++OO+##$=&$#@+++OOOOOOO@++OOooOoooooooooXXXXXXo+@+$=%@OOoooooooooooooOooooooooooooOOOOOOOOO++%=#@++@@+OOooOOoOOoOoooO+++++",
"@###@@#######%=&##@@@######@@###@@@@@@@@##@@+OOoooO+@$$#%-*$#+OOOOOO++++++@@@++@#@@@++++@@@@@##@+##*=$#@@#@+@@@@@@++++O++@#@@@+@",
"$$#########$%&=&###########################@@@@@@@@@%%%%&-=&%%##@#@@@@@@@@@@########@@@@@@@@@@#$$%&==%%$#@@@@####@@@@@++@#@@@@@@",
"&&%$$##$%%&&*=-=%#$$$$$$######$$###$##$$%$$#######$$&&&*=--=***&%$########@####@@@#$%$####$$$$%&&=---*&%$@@##%%%%$&&%$$@#$#@++@%",
"&&&***===****====**=====*=======-==**&&************&&&&&&%&&&&**===================--=***&&%%%&&&***&&%%%***%%%&&*======*%%%%&&&",
"%%%%%%%%%$%$$$$$$$$$$%&&&&%&***==--&%%%%&&&&%%&&&&%$$$#########$$$%%%%&&**=----===*&%%%%$$$$%%$$#####@##$$$#@@@@@#$$%&*-*%$%%%$%",
"@@@@@@++@++++@@@@@@@#####$$$$%%&&==%%$#####@@@@++++++++++OOOOOOOOO++++++@$&=-=*&%#@@@@@@#$##$###@@@+@@@#####@@@@@@@@@#$=&$#@@+@@",
"++OOOOOO+++OOOooooooOOOOO+++O+#$%&=%$@@@+++++++OOOOOOOOOOOOOOOoOOooooooooO$&=*$@OooO+oooOO++OOoOOooooooOOOOOoOOoooooO+@=%$++++++",
"++OOOOOOO++++OOooOOOOOOOOOOOOOO@$&=%#++++++++++++OOOOOOOOOOOOOO++Ooooooooo#%=&#+oooO@ooooO+oooooOooooooOOOOooooooOOoO+@=%#++++++",
"+OOOOOoOO+#@++OOOOOOOooooOoOOOO@$&=%@O+++++OO+++++OOO+OOOOOOOOOOOOoooooooo@$=&#OooooooooooOoooooOOOOOOOOOOooXoooXoooO@@=&@++++++",
"+OOooOOOOO@@++OO+OOOOOoooOOOOOO#$&=$@++++++OO++++++OOOOO+OO+OOOO+OOoOooooo@$=&#OoooOooooOOOOOooooooooooOOOoooOOOXoXoO@@=&@OOOOOO",
"+OoooOOOOO++++OOOOOOOOooOOOOOOO#$&*$@OO++++O+++OOO+OO+OOoo++OOOOOOOOoooooo@$*&#OooOOooooOOOOOooOOoooXooOOOoooOOOoooXO@@=%@oooOOO",
"OOoOoOoOOOOOOOOOOOOOOOOOOOO+++O#$&*$+OO++++OOOOOOO++++OOoOOOOOOOOOOOOOOooo@$=*$OoooooooOOoOOOoooooooXooOOOooooooooXXO@#=%@ooooOO",
"OooOOOooOOOOOOOOOOOOOOOO+++OOOO#$&*#+OO@+++OOOOooOO+++OoOOOOOOOOOOOOOOOOoO#$**$OooooooOOOoOOOoooooooooOOOoooooooooXXO@$=%@oooOOO",
"oooOOoooooOoooOOO++OOO+++++OOOo##&=$#O+@++OOOOOOOO+++OooOOOOOOoOOOOOOOOOOO#$**$OOOOooOOOOOoooooOOOoooOOOoooooooooo..O#%=%@OooOOO",
"oooOOOOOOooooooOOOO+++++++OOOOO@#&=%$++@++OOOOOOOOO+OoooooooOOOoOOoOOOOOOO#$**#OOOOOOO++OOoooooOOoooooOooooooooooOXo+#%=%#OoOOOO",
"ooooOOOoooooooooOOOO+++++OOOOOO@#&=$$+OOO+OOOOOOOO+OOOoOooooOOoOOOOOOOOOO+#$*&$OOOOO+OOOOOoooooooooooOoooooooooooOXX@$%=%@oooOOo",
"ooooOooooooooooooooOO+++OO+++OO@#&=$#OOOOOOOO+OOOOOOOOOOOOOOOooOOoOoOOOOO+$$*&$OOOO++OOOOoooooooooooooooooooooooXoXX#%&=%@oooooo",
"ooOoooooooOoOOooooooO+OOO++++OO@#&=$#OOooOOoo+OOOOOOOOOOOOOOOoO+OoOoooOOO+#$*&$+OO+OOOOOOOOOoOooooooooooooooooOOOooo#%&*%@oooooo",
"ooOooooooOOOOOOooooOOOOOO++OOOo@#&=##OOOooOoooOOOOoOOOOOOOoOOoOOOOOooooOO@##*&$++OOOOOOOOOOOOOOoooooooooooOOOOoXX.X+#$%*$@ooooOo",
"oooooooOoOOOOOOOOOOO+OOOOO+O+Oo@#&=##OoOOoOoooOOOooOOOOoooooOo@OOOOOooooO@##**$+++OOOOOOOOOOOO+OOoooooOOOoooXXXXXXo@#$%*%@OoooOO",
"OOooooOoOooOOOOOOOOO+OOOOOO+OOo@#&=#@OooOoOOoOoooooOOOooooooooOOOOOOOooO+###**$@+++O+++OOOOOOOOO+OOOOOOOooooXoXXXXo@#$&*%@OooOOo",
"OOOoooooOooooOOOOOOOOOOOOOOOOO+@#&-$#@OOoOO+++OOOOOOOOOOOOOOOOOOOOO+O++@@#@#**%#@@+O++++OOOOoOOOOooOOooOooooO+OooO@#$%&*%#OooooO",
"OOOOO+++++++++@@@@#########$###@@&-&$$##@################################@@$=*&$###@####@+++++++++@@@++++@#$$$$$$$$%%&*=%$@+@@+O",
"$$$#######$##$$$%%%%%%%$%%$$###@@*--*&%%$#######@##$#######@###@@@#########&==&&&&&&&&&&%%%%%$$$%%$$%%%%%&&&&&%%%%%&*=--&$$$$%%$",
"&&&&*&************&&&***==*******---==****&&&&******=&&&&&&&&***************-=*****=*****=====*===***********&&&**&**===*&&&&&&&",
"%%&&&%%$%*-&##$%%%%%$$$$%%%&&&&&&&%$$%&&********&&&&=------===*====*&&&&&%%%%&%%$$$$$$$$$%&*==---=&&%$##$$$$$$$$$$$$#$$%$$$$$$$$",
"#####@@@#%-###########################$$$%%%%$$###$%&-=*&&%$$%%$$$%$$$$$$$$$$$#$####$$#####$%&*-=&%$##@#####$%$#################",
"O+OOOOOO#%-#@@@++++++@@@++OOOooOOOOOOO+++@@@@@++++@$&-*%@@++++OOO+++++++O++##@+++@@@#@@@@+++#$%==%#@@++O++OOOOOOooooooO+O+OOO+OO",
"OOOOOOOO@%-$#@OOOOOOOOOoOooooooOOOOOooOO+++++++++++#%=%$++++OooOO+++++OooOOOOO+++++++OOOOooo+#$*=$@+ooOOOOooooooooooooOOOOOOOOOO",
"OOOOOOOO@%-%#+oOO+OOOOoooooooooO+OOOooOOOO++OOOOOOO#%=%$+++OooooOOOOOOOoooOOOO+++OOOOOOoooooO#$&=$#OooOOOOooooooooooooO+OOOOOOOO",
"OOOooooo@%-%#+oOOOoooooooooooooO++OooooOOOOOOOOOOOO#%=%#++OooooooOOOOOOoOOOooO+OOoOOOOo+#@+OO#$*-%$@OOoOOXXoooooooooooO+++OOOOOO",
"OOOOoooo#%-%#@ooOoooooooooooooooOOOooooooOOOOOooOOO#%-$#+OooooooOOoooooooOoooO+OOO+oOOO#@@@@O#$*-%#+++ooXXXoooooooooooO++OooOOOO",
"OOOOOooO#%-%##ooOooooooooooooooooooXo+oooOOOOOOoOOO#%-$#OOoooooooooooooOOoOOOOOOoO#oooOOooooO##*-&#+ooooXXXoooo+oooooooooooO@OoO",
"OOOOOOoO#%-%##oOOooooooooooooooooXXoOO+ooOOOOOOooo+#%-%#+OoooooooooooooooO+++++ooO#OooooooooO##*-&#@oOOoXXXXoooO@ooooooooo++++Oo",
"ooOOOOOO$%-$#@O+OOoooooooooooooooXoOOO+ooOOOOOOOoo+#%-&#+OoooooooooooooOoO+++++OOO@OooooooooO##*-&#+OOOOoXXXXooo+ooooooooO+OO++O",
"ooO+++OO#%-$#+O+++OooooooooooooooXOOOO+oOoOO++OOOoO#%-&$+oooooOOOOoooOooO++@@+++OoOooooOOOOoO##*-&#@o+OOOoXXXooooOOoooooO++OO++O",
"oooOOOOO#%-#@+O++OOOooooooooOooooO+OOO@OooooO+OOOOO#%=&#Oooooo++O+OooOooO+@@+++++OooooooOO+OO##*-&@@OOOooooXoooooooOoooo+@+OO@@O",
"oooooOOO#%-#@@OOOOOOooooooooOoXooo+@++@+XooooOOOOOO#%=%#OooooooOO+OoooooO+++++++OOooooooOOOOO#$*-&#@OooO+oXXoooooo++Ooooo@@@+@+o",
"oooooOOO#&-##@O+OOOooOOOOOOOooooooooO@+OXoooooOO+++#%=%#oooooooOOOOOOoooO+++++++OoOOO+++++oo+#$*-&#@OOOoooXX+oOOOO+@+ooOooO+@+Oo",
"ooooooOO#&-##@OOOOoooooooooXoOooooooooooooooooOO+++$%=%#ooooooOOOOOOOOOooOOO++OOOoooOOooooOO+#$*-%#@oOOoooooooooXXoooooOoooooooo",
"XXoooooO$*-#@@oooooooooOO@+ooooooooOoooooooooooOO++$%*%#OooOOO++OOOOOOooooooooooOooooooooooo@#$*-%@@oooooooooXoooooooooooOOoXooX",
"XXXXXXoO%*=#@@oooooooooO@$+ooooOoOOOOoooXXoooooOO++$%*&$OOOOO++++OOOOOoooooooooooooooOOooooO@#$*-$@@+XoooooXXooooooXooooOOOoooXX",
"XXXXXXo+%*=$@@+oooooooOO+@OOOOOooOooooOoOOOooooOO+@$&*&$@OOoOOOOOOoOOOOOooooooOOOOOO+++++@@@@#$==#@@@+OOOOO+++OOOOOooooooooooXXX",
"++++O+@#%*-%########@@#@@@@####@@@@+@##$$#$#+OO+@#$%**&$#@++++@@@@#########@@@#########$#$####%-*#++@@#@@@#####@@@@@####@@++++O+",
"$####$$$$*-&###@#####################$$%%%%&&$$$%%&*==*%#@@@@@@@@@@####################$%%&&%&*-=%$###$$##@@#######$%$$###@@@@#%",
"=*%&*****=--*&&&*&%$$$$$$$$$%%%$$$%$%&&&&&*-=***====---&$$$$$$$$$$$$%%%%%$$$$%&&%%$$$$%&*=--=-----==*===**&&&&*=&%&=**&&&%%&&&*="
};
